<svg xmlns="http://www.w3.org/2000/svg" version="1.1" xmlns:xlink="http://www.w3.org/1999/xlink" xmlns:svgjs="http://svgjs.dev/svgjs" width="3000" height="600" preserveAspectRatio="none" viewBox="0 0 3000 600"><g mask="url(&quot;#SvgjsMask1021&quot;)" fill="none"><path d="M1264.51-99.3C1037.56-85.88 869.07 331.14 463.84 331.9 58.61 332.66-131.67 153-336.83 151.9" stroke="rgba(221, 190, 171, 0.85)" stroke-width="2"></path><path d="M1632.9-35.67C1450.14-13.75 1485.83 396.24 1036.72 396.42 587.62 396.6 149.67 133.99-155.63 132.42" stroke="rgba(221, 190, 171, 0.85)" stroke-width="2"></path><path d="M1814.8-38.91C1597.02-30.12 1618.02 328 1023.94 328.05 429.86 328.1-158.05 94.68-557.78 94.05" stroke="rgba(221, 190, 171, 0.85)" stroke-width="2"></path><path d="M1363.34-13C1185.51 5.89 1218.63 391.8 773.79 392.09 328.94 392.38-105.91 182.91-405.32 182.09" stroke="rgba(221, 190, 171, 0.85)" stroke-width="2"></path><path d="M2123.37-2.01C1916.5 9.07 1940.35 379 1387.51 379.06 834.67 379.12 289.07 127.97-84.21 127.06" stroke="rgba(221, 190, 171, 0.85)" stroke-width="2"></path></g><defs><mask id="SvgjsMask1021"><rect width="3000" height="600" fill="#ffffff"></rect></mask></defs></svg>