<svg xmlns="http://www.w3.org/2000/svg" version="1.1" xmlns:xlink="http://www.w3.org/1999/xlink" xmlns:svgjs="http://svgjs.dev/svgjs" width="5000" height="1500" preserveAspectRatio="none" viewBox="0 0 5000 1500"><g mask="url(&quot;#SvgjsMask1064&quot;)" fill="none"><path d="M -327.6393078034057,504 C 172.36,580.4 1172.36,859.6 2172.3606921965943,886 C 3172.36,912.4 3672.36,658.8 4672.360692196595,636 C 5672.36,613.2 7106.83,805.8 7172.360692196595,772 C 7237.89,738.2 5434.47,528 5000,467" stroke="rgba(0, 0, 0, 0.67)" stroke-width="2"></path><path d="M -2069.9266021969297,289 C -1569.93,430.8 -569.93,971.2 430.0733978030702,998 C 1430.07,1024.8 1930.07,447 2930.0733978030703,423 C 3930.07,399 5016.09,880.2 5430.07339780307,878 C 5844.06,875.8 5086.01,505.2 5000,412" stroke="rgba(0, 0, 0, 0.67)" stroke-width="2"></path><path d="M -2142.9431108991057,431 C -1642.94,510 -642.94,763 357.05688910089407,826 C 1357.06,889 1857.06,672 2857.0568891008943,746 C 3857.06,820 4928.47,1292.6 5357.056889100894,1196 C 5785.65,1099.4 5071.41,449.6 5000,263" stroke="rgba(0, 0, 0, 0.67)" stroke-width="2"></path><path d="M -3936.581827912426,1225 C -3436.58,1099.8 -2436.58,639 -1436.581827912426,599 C -436.58,559 63.42,1087.2 1063.418172087574,1025 C 2063.42,962.8 2776.1,316.4 3563.418172087574,288 C 4350.73,259.6 4712.68,764 5000,883" stroke="rgba(0, 0, 0, 0.67)" stroke-width="2"></path><path d="M -3488.610254350668,1067 C -2988.61,983 -1988.61,667 -988.6102543506681,647 C 11.39,627 511.39,1030.8 1511.3897456493319,967 C 2511.39,903.2 3313.67,293 4011.389745649332,328 C 4709.11,363 4802.28,979.2 5000,1142" stroke="rgba(0, 0, 0, 0.67)" stroke-width="2"></path><path d="M -1085.2261400475682,895 C -585.23,784.6 414.77,334.2 1414.7738599524318,343 C 2414.77,351.8 2914.77,931.8 3914.773859952432,939 C 4914.77,946.2 6197.73,321.2 6414.773859952432,379 C 6631.82,436.8 5282.95,1058.2 5000,1228" stroke="rgba(0, 0, 0, 0.67)" stroke-width="2"></path></g><defs><mask id="SvgjsMask1064"><rect width="5000" height="1500" fill="#ffffff"></rect></mask></defs></svg>